<?xml version="1.0" standalone="no"?>
<!DOCTYPE svg PUBLIC "-//W3C//DTD SVG 1.1//EN" "http://www.w3.org/Graphics/SVG/1.1/DTD/svg11.dtd">
<svg width="11mm" height="55mm" viewBox="0 -55 11 55" xmlns="http://www.w3.org/2000/svg" version="1.1">
<title>OpenSCAD Model</title>
<path d="
M 10,-54.5162 L 8.96201,-54.5162 L 8.96201,-49.5322 L 8.82523,-49.5955 L 8.6869,-49.6693 L 8.54703,-49.7536
 L 8.40559,-49.8484 L 8.26262,-49.9538 L 8.11809,-50.0697 L 7.972,-50.1962 L 7.82259,-50.3347 L 7.66801,-50.4862
 L 7.5083,-50.6506 L 7.34343,-50.828 L 7.17343,-51.0184 L 6.99829,-51.2218 L 6.81801,-51.4382 L 6.50008,-51.8244
 L 6.20682,-52.1731 L 5.93828,-52.4845 L 5.69441,-52.7585 L 5.47525,-52.9951 L 5.28078,-53.1944 L 5.11101,-53.3562
 L 4.95331,-53.4946 L 4.79565,-53.6228 L 4.63805,-53.7409 L 4.48048,-53.8489 L 4.32295,-53.9468 L 4.16545,-54.0346
 L 4.00801,-54.1122 L 3.85043,-54.1799 L 3.69258,-54.2371 L 3.53444,-54.2839 L 3.37601,-54.3204 L 3.2173,-54.3464
 L 3.05829,-54.362 L 2.899,-54.3672 L 2.55103,-54.3513 L 2.22652,-54.3038 L 1.92548,-54.2245 L 1.6479,-54.1135
 L 1.3938,-53.9708 L 1.16318,-53.7963 L 0.956009,-53.5902 L 0.774536,-53.3549 L 0.620987,-53.0922 L 0.495361,-52.8024
 L 0.397644,-52.4852 L 0.32785,-52.1408 L 0.285965,-51.7691 L 0.272003,-51.3702 L 0.285843,-51.004 L 0.327362,-50.6573
 L 0.396545,-50.3302 L 0.493393,-50.0226 L 0.61792,-49.7346 L 0.770126,-49.4661 L 0.950012,-49.2172 L 1.15327,-48.9924
 L 1.37564,-48.7961 L 1.61711,-48.6285 L 1.87769,-48.4895 L 2.15735,-48.3791 L 2.45613,-48.2974 L 2.774,-48.2442
 L 2.88901,-49.4912 L 2.67715,-49.5249 L 2.47929,-49.5755 L 2.29544,-49.6432 L 2.12558,-49.7279 L 1.96973,-49.8297
 L 1.82787,-49.9484 L 1.70001,-50.0842 L 1.58752,-50.2344 L 1.49234,-50.3957 L 1.41446,-50.5682 L 1.35388,-50.752
 L 1.31062,-50.9469 L 1.28467,-51.1529 L 1.276,-51.3702 L 1.28493,-51.5974 L 1.31168,-51.81 L 1.35628,-52.0078
 L 1.4187,-52.1909 L 1.49896,-52.3594 L 1.59708,-52.5131 L 1.71301,-52.6522 L 1.84482,-52.7745 L 1.99113,-52.878
 L 2.15193,-52.9627 L 2.32721,-53.0285 L 2.51698,-53.0756 L 2.72125,-53.1038 L 2.94,-53.1132 L 3.10466,-53.1077
 L 3.26433,-53.0913 L 3.41902,-53.064 L 3.56874,-53.0257 L 3.71347,-52.9765 L 3.85323,-52.9163 L 3.98801,-52.8452
 L 4.11919,-52.7652 L 4.24875,-52.6785 L 4.37666,-52.585 L 4.50294,-52.4847 L 4.62759,-52.3777 L 4.75063,-52.2638
 L 4.87201,-52.1432 L 4.99258,-52.0171 L 5.11314,-51.8866 L 5.23372,-51.7519 L 5.35429,-51.6129 L 5.47487,-51.4696
 L 5.59544,-51.3221 L 5.716,-51.1702 L 5.83803,-51.016 L 5.96295,-50.8613 L 6.09076,-50.7062 L 6.22148,-50.5506
 L 6.35509,-50.3946 L 6.49159,-50.2381 L 6.63101,-50.0812 L 6.77423,-49.9254 L 6.9222,-49.7716 L 7.07489,-49.6198
 L 7.23232,-49.4701 L 7.39447,-49.3224 L 7.56137,-49.1768 L 7.733,-49.0332 L 7.91083,-48.894 L 8.09627,-48.761
 L 8.28935,-48.6343 L 8.49007,-48.5137 L 8.69841,-48.3993 L 8.9144,-48.2912 L 9.138,-48.1892 L 10,-48.1892
 z
M 10,-46.9942 L 8.96201,-46.9942 L 8.96201,-44.6682 L 0.464005,-44.6682 L 0.464005,-43.5422 L 1.99901,-41.2842
 L 3.15201,-41.2842 L 1.63101,-43.4402 L 8.96201,-43.4402 L 8.96201,-41.0062 L 10,-41.0062 z
M 10,-39.4303 L 8.96201,-39.4303 L 8.96201,-34.4463 L 8.82523,-34.5095 L 8.6869,-34.5833 L 8.54703,-34.6676
 L 8.40559,-34.7625 L 8.26262,-34.8679 L 8.11809,-34.9838 L 7.972,-35.1103 L 7.82259,-35.2487 L 7.66801,-35.4002
 L 7.5083,-35.5647 L 7.34343,-35.7421 L 7.17343,-35.9325 L 6.99829,-36.1359 L 6.81801,-36.3523 L 6.50008,-36.7384
 L 6.20682,-37.0872 L 5.93828,-37.3986 L 5.69441,-37.6726 L 5.47525,-37.9092 L 5.28078,-38.1084 L 5.11101,-38.2703
 L 4.95331,-38.4086 L 4.79565,-38.5369 L 4.63805,-38.655 L 4.48048,-38.763 L 4.32295,-38.8609 L 4.16545,-38.9486
 L 4.00801,-39.0263 L 3.85043,-39.0939 L 3.69258,-39.1512 L 3.53444,-39.198 L 3.37601,-39.2344 L 3.2173,-39.2605
 L 3.05829,-39.2761 L 2.899,-39.2813 L 2.55103,-39.2654 L 2.22652,-39.2178 L 1.92548,-39.1385 L 1.6479,-39.0276
 L 1.3938,-38.8848 L 1.16318,-38.7104 L 0.956009,-38.5043 L 0.774536,-38.2689 L 0.620987,-38.0063 L 0.495361,-37.7164
 L 0.397644,-37.3993 L 0.32785,-37.0549 L 0.285965,-36.6832 L 0.272003,-36.2843 L 0.285843,-35.918 L 0.327362,-35.5714
 L 0.396545,-35.2442 L 0.493393,-34.9367 L 0.61792,-34.6487 L 0.770126,-34.3802 L 0.950012,-34.1313 L 1.15327,-33.9064
 L 1.37564,-33.7102 L 1.61711,-33.5426 L 1.87769,-33.4036 L 2.15735,-33.2932 L 2.45613,-33.2114 L 2.774,-33.1583
 L 2.88901,-34.4053 L 2.67715,-34.4389 L 2.47929,-34.4896 L 2.29544,-34.5573 L 2.12558,-34.642 L 1.96973,-34.7437
 L 1.82787,-34.8625 L 1.70001,-34.9983 L 1.58752,-35.1484 L 1.49234,-35.3098 L 1.41446,-35.4823 L 1.35388,-35.666
 L 1.31062,-35.8609 L 1.28467,-36.067 L 1.276,-36.2843 L 1.28493,-36.5115 L 1.31168,-36.724 L 1.35628,-36.9219
 L 1.4187,-37.105 L 1.49896,-37.2735 L 1.59708,-37.4272 L 1.71301,-37.5663 L 1.84482,-37.6886 L 1.99113,-37.7921
 L 2.15193,-37.8767 L 2.32721,-37.9426 L 2.51698,-37.9896 L 2.72125,-38.0179 L 2.94,-38.0273 L 3.10466,-38.0218
 L 3.26433,-38.0054 L 3.41902,-37.978 L 3.56874,-37.9398 L 3.71347,-37.8905 L 3.85323,-37.8304 L 3.98801,-37.7593
 L 4.11919,-37.6793 L 4.24875,-37.5926 L 4.37666,-37.4991 L 4.50294,-37.3988 L 4.62759,-37.2917 L 4.75063,-37.1779
 L 4.87201,-37.0573 L 4.99258,-36.9311 L 5.11314,-36.8007 L 5.23372,-36.666 L 5.35429,-36.527 L 5.47487,-36.3837
 L 5.59544,-36.2361 L 5.716,-36.0843 L 5.83803,-35.93 L 5.96295,-35.7754 L 6.09076,-35.6202 L 6.22148,-35.4647
 L 6.35509,-35.3087 L 6.49159,-35.1522 L 6.63101,-34.9953 L 6.77423,-34.8394 L 6.9222,-34.6856 L 7.07489,-34.5339
 L 7.23232,-34.3842 L 7.39447,-34.2365 L 7.56137,-34.0909 L 7.733,-33.9473 L 7.91083,-33.8081 L 8.09627,-33.6751
 L 8.28935,-33.5483 L 8.49007,-33.4277 L 8.69841,-33.3134 L 8.9144,-33.2052 L 9.138,-33.1033 L 10,-33.1033
 z
M 10,-31.2267 L 8.52802,-31.2267 L 8.52802,-29.9047 L 10,-29.9047 z
M 5.58774,-19.5581 L 5.99966,-19.5919 L 6.39476,-19.6482 L 6.77306,-19.727 L 7.13452,-19.8284 L 7.47917,-19.9523
 L 7.80701,-20.0988 L 8.11591,-20.267 L 8.40375,-20.4558 L 8.67052,-20.665 L 8.91623,-20.8947 L 9.14088,-21.1449
 L 9.34448,-21.4156 L 9.52701,-21.7068 L 9.68646,-22.0162 L 9.82138,-22.3414 L 9.93176,-22.6825 L 10.0176,-23.0395
 L 10.0789,-23.4124 L 10.1157,-23.8012 L 10.128,-24.2058 L 10.1148,-24.6019 L 10.0751,-24.9841 L 10.009,-25.3522
 L 9.91641,-25.7064 L 9.79739,-26.0465 L 9.65193,-26.3727 L 9.48001,-26.6848 L 9.28246,-26.9802 L 9.06065,-27.2561
 L 8.81462,-27.5124 L 8.54433,-27.7493 L 8.2498,-27.9666 L 7.93103,-28.1645 L 7.58801,-28.3428 L 7.05602,-27.2848
 L 7.58847,-26.9758 L 8.03903,-26.6262 L 8.40765,-26.2358 L 8.69438,-25.8046 L 8.89917,-25.3327 L 9.02205,-24.8201
 L 9.063,-24.2668 L 9.04115,-23.8326 L 8.97559,-23.4247 L 8.86629,-23.0433 L 8.71329,-22.6883 L 8.51659,-22.3597
 L 8.27615,-22.0576 L 7.992,-21.7818 L 7.67191,-21.538 L 7.32359,-21.3317 L 6.94708,-21.1629 L 6.54237,-21.0316
 L 6.10945,-20.9378 L 5.64833,-20.8815 L 5.15901,-20.8628 L 4.66536,-20.8808 L 4.20268,-20.9347 L 3.77098,-21.0246
 L 3.37027,-21.1505 L 3.00053,-21.3123 L 2.66179,-21.5101 L 2.354,-21.7438 L 2.08234,-22.0102 L 1.85246,-22.3053
 L 1.66437,-22.6293 L 1.51808,-22.982 L 1.4136,-23.3635 L 1.35091,-23.7737 L 1.33,-24.2128 L 1.33888,-24.4958
 L 1.36552,-24.7676 L 1.40991,-25.0282 L 1.47205,-25.2776 L 1.55194,-25.5159 L 1.6496,-25.7429 L 1.76501,-25.9588
 L 1.89723,-26.1608 L 2.04533,-26.3464 L 2.20932,-26.5154 L 2.38918,-26.668 L 2.5849,-26.8041 L 2.79652,-26.9237
 L 3.024,-27.0268 L 2.62001,-28.2538 L 2.2991,-28.1053 L 2.00156,-27.9346 L 1.72736,-27.7418 L 1.4765,-27.5268
 L 1.24899,-27.2896 L 1.04483,-27.0303 L 0.864014,-26.7488 L 0.70694,-26.446 L 0.574051,-26.1227 L 0.465317,-25.7789
 L 0.380737,-25.4146 L 0.320328,-25.0298 L 0.284088,-24.6245 L 0.272003,-24.1988 L 0.298523,-23.5942 L 0.378052,-23.0283
 L 0.510605,-22.5013 L 0.696167,-22.013 L 0.934769,-21.5635 L 1.22638,-21.1528 L 1.57101,-20.7808 L 1.96211,-20.4534
 L 2.39371,-20.1764 L 2.86578,-19.9497 L 3.37836,-19.7734 L 3.93141,-19.6475 L 4.52496,-19.572 L 5.15901,-19.5468
 z
M 5.58774,-9.76314 L 5.99966,-9.79694 L 6.39476,-9.85326 L 6.77306,-9.93211 L 7.13452,-10.0335 L 7.47917,-10.1574
 L 7.80701,-10.3039 L 8.11591,-10.4721 L 8.40375,-10.6608 L 8.67052,-10.8701 L 8.91623,-11.0998 L 9.14088,-11.35
 L 9.34448,-11.6207 L 9.52701,-11.9119 L 9.68646,-12.2212 L 9.82138,-12.5465 L 9.93176,-12.8876 L 10.0176,-13.2446
 L 10.0789,-13.6175 L 10.1157,-14.0062 L 10.128,-14.4109 L 10.1148,-14.807 L 10.0751,-15.1891 L 10.009,-15.5573
 L 9.91641,-15.9114 L 9.79739,-16.2516 L 9.65193,-16.5777 L 9.48001,-16.8899 L 9.28246,-17.1853 L 9.06065,-17.4611
 L 8.81462,-17.7175 L 8.54433,-17.9544 L 8.2498,-18.1717 L 7.93103,-18.3695 L 7.58801,-18.5479 L 7.05602,-17.4899
 L 7.58847,-17.1809 L 8.03903,-16.8313 L 8.40765,-16.4408 L 8.69438,-16.0097 L 8.89917,-15.5378 L 9.02205,-15.0252
 L 9.063,-14.4719 L 9.04115,-14.0376 L 8.97559,-13.6298 L 8.86629,-13.2484 L 8.71329,-12.8934 L 8.51659,-12.5648
 L 8.27615,-12.2626 L 7.992,-11.9869 L 7.67191,-11.7431 L 7.32359,-11.5367 L 6.94708,-11.368 L 6.54237,-11.2367
 L 6.10945,-11.1429 L 5.64833,-11.0866 L 5.49261,-11.0807 L 5.48428,-11.1243 L 5.46487,-11.1841 L 5.43814,-11.2409
 L 5.4045,-11.2939 L 5.36447,-11.3423 L 5.31871,-11.3853 L 5.2679,-11.4221 L 5.21288,-11.4524 L 5.1545,-11.4755
 L 5.09369,-11.4911 L 5.03139,-11.499 L 4.96861,-11.499 L 4.90631,-11.4911 L 4.8455,-11.4755 L 4.78712,-11.4524
 L 4.7321,-11.4221 L 4.68129,-11.3853 L 4.63553,-11.3423 L 4.5955,-11.2939 L 4.56186,-11.2409 L 4.53513,-11.1841
 L 4.51572,-11.1243 L 4.5118,-11.1037 L 4.20268,-11.1398 L 3.77098,-11.2297 L 3.37027,-11.3555 L 3.00053,-11.5174
 L 2.66179,-11.7151 L 2.354,-11.9489 L 2.08234,-12.2153 L 1.85246,-12.5104 L 1.66437,-12.8344 L 1.51808,-13.1871
 L 1.4136,-13.5686 L 1.35091,-13.9788 L 1.33,-14.4179 L 1.33888,-14.7009 L 1.36552,-14.9726 L 1.40991,-15.2333
 L 1.47205,-15.4827 L 1.55194,-15.7209 L 1.6496,-15.948 L 1.76501,-16.1639 L 1.89723,-16.3659 L 2.04533,-16.5515
 L 2.20932,-16.7205 L 2.38918,-16.8731 L 2.5849,-17.0092 L 2.79652,-17.1288 L 3.024,-17.2319 L 2.62001,-18.4589
 L 2.2991,-18.3104 L 2.00156,-18.1397 L 1.72736,-17.9469 L 1.4765,-17.7318 L 1.24899,-17.4947 L 1.04483,-17.2354
 L 0.864014,-16.9539 L 0.70694,-16.651 L 0.574051,-16.3277 L 0.465317,-15.9839 L 0.380737,-15.6197 L 0.320328,-15.2349
 L 0.284088,-14.8296 L 0.272003,-14.4039 L 0.298523,-13.7993 L 0.378052,-13.2334 L 0.510605,-12.7064 L 0.696167,-12.2181
 L 0.934769,-11.7686 L 1.22638,-11.3578 L 1.57101,-10.9859 L 1.96211,-10.6585 L 2.39371,-10.3815 L 2.86578,-10.1548
 L 3.37836,-9.97852 L 3.93141,-9.8526 L 4.52496,-9.77705 L 5.15901,-9.75186 z
M 5.03748,-16.8035 L 5.0618,-16.8098 L 5.08514,-16.819 L 5.10716,-16.8311 L 5.12747,-16.8459 L 5.14578,-16.8631
 L 5.16179,-16.8824 L 5.17525,-16.9037 L 5.18594,-16.9264 L 5.19371,-16.9503 L 5.19841,-16.9749 L 5.2,-17
 L 5.19841,-17.0251 L 5.19371,-17.0497 L 5.18594,-17.0736 L 5.17525,-17.0963 L 5.16179,-17.1176 L 5.14578,-17.1369
 L 5.14525,-17.1374 L 5.13947,-17.1552 L 5.13144,-17.1723 L 5.12134,-17.1882 L 5.10934,-17.2027 L 5.09561,-17.2156
 L 5.08037,-17.2266 L 5.06386,-17.2357 L 5.04634,-17.2426 L 5.02811,-17.2473 L 5.00941,-17.2497 L 4.99059,-17.2497
 L 4.97189,-17.2473 L 4.95366,-17.2426 L 4.93614,-17.2357 L 4.91963,-17.2266 L 4.90439,-17.2156 L 4.89066,-17.2027
 L 4.87866,-17.1882 L 4.86856,-17.1723 L 4.86053,-17.1552 L 4.85475,-17.1374 L 4.85422,-17.1369 L 4.83821,-17.1176
 L 4.82475,-17.0963 L 4.81406,-17.0736 L 4.80629,-17.0497 L 4.80159,-17.0251 L 4.8,-17 L 4.80159,-16.9749
 L 4.80629,-16.9503 L 4.81406,-16.9264 L 4.82475,-16.9037 L 4.83821,-16.8824 L 4.85422,-16.8631 L 4.87253,-16.8459
 L 4.89284,-16.8311 L 4.91486,-16.819 L 4.9382,-16.8098 L 4.96252,-16.8035 L 4.98744,-16.8004 L 5.01256,-16.8004
 z
M 5.01874,-16.4018 L 5.0309,-16.4049 L 5.04257,-16.4095 L 5.05357,-16.4156 L 5.06374,-16.4229 L 5.07289,-16.4315
 L 5.08089,-16.4412 L 5.08762,-16.4518 L 5.09297,-16.4632 L 5.09685,-16.4751 L 5.0992,-16.4875 L 5.09999,-16.5
 L 5.0992,-16.5125 L 5.09685,-16.5249 L 5.09297,-16.5368 L 5.08762,-16.5482 L 5.08089,-16.5588 L 5.07289,-16.5685
 L 5.06374,-16.577 L 5.05357,-16.5844 L 5.04257,-16.5905 L 5.0309,-16.5951 L 5.01874,-16.5982 L 5.00627,-16.5998
 L 4.99373,-16.5998 L 4.98126,-16.5982 L 4.9691,-16.5951 L 4.95743,-16.5905 L 4.94643,-16.5844 L 4.93626,-16.577
 L 4.92711,-16.5685 L 4.91911,-16.5588 L 4.91238,-16.5482 L 4.90703,-16.5368 L 4.90315,-16.5249 L 4.9008,-16.5125
 L 4.90001,-16.5 L 4.9008,-16.4875 L 4.90315,-16.4751 L 4.90703,-16.4632 L 4.91238,-16.4518 L 4.91911,-16.4412
 L 4.92711,-16.4315 L 4.93626,-16.4229 L 4.94643,-16.4156 L 4.95743,-16.4095 L 4.9691,-16.4049 L 4.98126,-16.4018
 L 4.99373,-16.4002 L 5.00627,-16.4002 z
M 5.18738,-14.0177 L 5.30901,-14.049 L 5.42577,-14.0952 L 5.53581,-14.1557 L 5.63742,-14.2295 L 5.72896,-14.3155
 L 5.80901,-14.4122 L 5.8763,-14.5182 L 5.92976,-14.6319 L 5.96858,-14.7513 L 5.99211,-14.8747 L 6,-15
 L 5.99211,-15.1253 L 5.96858,-15.2487 L 5.92976,-15.3681 L 5.8763,-15.4818 L 5.80901,-15.5878 L 5.72896,-15.6845
 L 5.63742,-15.7705 L 5.53581,-15.8443 L 5.42577,-15.9048 L 5.30901,-15.951 L 5.18738,-15.9823 L 5.06279,-15.998
 L 4.93721,-15.998 L 4.81262,-15.9823 L 4.69099,-15.951 L 4.57423,-15.9048 L 4.46419,-15.8443 L 4.36258,-15.7705
 L 4.27104,-15.6845 L 4.19099,-15.5878 L 4.1237,-15.4818 L 4.07024,-15.3681 L 4.03142,-15.2487 L 4.00789,-15.1253
 L 4,-15 L 4.00789,-14.8747 L 4.03142,-14.7513 L 4.07024,-14.6319 L 4.1237,-14.5182 L 4.19099,-14.4122
 L 4.27104,-14.3155 L 4.36258,-14.2295 L 4.46419,-14.1557 L 4.57423,-14.0952 L 4.69099,-14.049 L 4.81262,-14.0177
 L 4.93721,-14.002 L 5.06279,-14.002 z
M 8.34418,-0.849762 L 8.88924,-1.18839 L 9.33519,-1.64684 L 9.68205,-2.22511 L 9.92981,-2.92323 L 10.0784,-3.7412
 L 10.128,-4.67899 L 10.1132,-5.19861 L 10.0686,-5.68373 L 9.99448,-6.13435 L 9.89062,-6.55051 L 9.7571,-6.93216
 L 9.59389,-7.27931 L 9.401,-7.592 L 9.18082,-7.86632 L 8.93628,-8.09843 L 8.66736,-8.28836 L 8.37407,-8.43608
 L 8.05641,-8.54158 L 7.7144,-8.60489 L 7.34801,-8.62599 L 7.20135,-8.62302 L 7.06026,-8.61407 L 6.9247,-8.59918
 L 6.79471,-8.57832 L 6.67026,-8.5515 L 6.55136,-8.51872 L 6.438,-8.48 L 6.32925,-8.43599 L 6.2247,-8.38742
 L 6.12436,-8.33427 L 6.02821,-8.27657 L 5.93628,-8.21428 L 5.84854,-8.14742 L 5.76501,-8.07599 L 5.6851,-8.00069
 L 5.61906,-7.93224 L 5.56213,-7.94685 L 5.18837,-7.99408 L 4.81163,-7.99408 L 4.43787,-7.94685 L 4.07295,-7.85316
 L 3.72267,-7.71448 L 3.39253,-7.53297 L 3.08774,-7.31154 L 2.8131,-7.05363 L 2.57295,-6.76335 L 2.37109,-6.44525
 L 2.21068,-6.10437 L 2.09425,-5.74606 L 2.02367,-5.37599 L 2,-5 L 2.02367,-4.62401 L 2.09425,-4.25394
 L 2.21068,-3.89563 L 2.37109,-3.55475 L 2.57295,-3.23665 L 2.8131,-2.94637 L 3.08774,-2.68846 L 3.36665,-2.48582
 L 3.32037,-2.45938 L 3.2222,-2.4164 L 3.11777,-2.38297 L 3.0071,-2.3591 L 2.89017,-2.34477 L 2.76701,-2.34
 L 2.55865,-2.35229 L 2.36562,-2.38922 L 2.18788,-2.45074 L 2.02545,-2.5369 L 1.87834,-2.64764 L 1.74652,-2.78302
 L 1.63,-2.94299 L 1.52893,-3.12662 L 1.44339,-3.33238 L 1.37341,-3.56026 L 1.31898,-3.81026 L 1.28011,-4.08238
 L 1.25679,-4.37662 L 1.24901,-4.69299 L 1.25601,-4.98201 L 1.27701,-5.2525 L 1.31201,-5.50446 L 1.36101,-5.73788
 L 1.42401,-5.95279 L 1.50101,-6.14915 L 1.59201,-6.327 L 1.69823,-6.48781 L 1.82147,-6.63312 L 1.96175,-6.76291
 L 2.11903,-6.8772 L 2.29333,-6.97597 L 2.48466,-7.05923 L 2.69301,-7.127 L 2.46901,-8.40199 L 2.14047,-8.29262
 L 1.84061,-8.16223 L 1.56938,-8.01083 L 1.3268,-7.83839 L 1.11288,-7.64496 L 0.927612,-7.43048 L 0.771011,-7.19499
 L 0.638626,-6.93333 L 0.526596,-6.64038 L 0.434952,-6.31612 L 0.363663,-5.96054 L 0.312744,-5.57367 L 0.282196,-5.15549
 L 0.272003,-4.70599 L 0.285599,-4.22255 L 0.32637,-3.7722 L 0.394333,-3.35495 L 0.489471,-2.97081 L 0.611801,-2.61977
 L 0.761307,-2.30183 L 0.938004,-2.017 L 1.13983,-1.76787 L 1.3647,-1.55707 L 1.61264,-1.3846 L 1.88364,-1.25046
 L 2.1777,-1.15465 L 2.49483,-1.09715 L 2.83501,-1.07799 L 2.98595,-1.08165 L 3.13191,-1.09261 L 3.27289,-1.11087
 L 3.40889,-1.13644 L 3.5399,-1.16931 L 3.66594,-1.2095 L 3.787,-1.25699 L 3.90315,-1.31166 L 4.01501,-1.37283
 L 4.12257,-1.44048 L 4.22586,-1.51462 L 4.32486,-1.59526 L 4.41959,-1.68237 L 4.51001,-1.77599 L 4.59714,-1.87816
 L 4.68193,-1.99036 L 4.70178,-2.01981 L 4.81163,-2.00592 L 5.18837,-2.00592 L 5.56213,-2.05315 L 5.92705,-2.14684
 L 6.27733,-2.28552 L 6.60747,-2.46703 L 6.91226,-2.68846 L 7.1869,-2.94637 L 7.42705,-3.23665 L 7.62891,-3.55475
 L 7.78932,-3.89563 L 7.90575,-4.25394 L 7.97633,-4.62401 L 8,-5 L 7.97633,-5.37599 L 7.90575,-5.74606
 L 7.78932,-6.10437 L 7.62891,-6.44525 L 7.42705,-6.76335 L 7.1869,-7.05363 L 6.94882,-7.27721 L 7.04652,-7.30469
 L 7.16246,-7.32652 L 7.28561,-7.33963 L 7.416,-7.34399 L 7.64691,-7.33008 L 7.86131,-7.28831 L 8.05923,-7.21872
 L 8.24066,-7.12129 L 8.40559,-6.99603 L 8.55405,-6.84293 L 8.686,-6.66199 L 8.80061,-6.4557 L 8.8976,-6.226
 L 8.97694,-5.97285 L 9.03867,-5.69627 L 9.08275,-5.39627 L 9.10919,-5.07285 L 9.11801,-4.726 L 9.10979,-4.38977
 L 9.08511,-4.07423 L 9.04399,-3.7794 L 8.98642,-3.50526 L 8.9124,-3.25182 L 8.82193,-3.01906 L 8.71501,-2.80699
 L 8.59023,-2.61552 L 8.44676,-2.44397 L 8.28461,-2.29234 L 8.10374,-2.16063 L 7.90419,-2.04883 L 7.68594,-1.95695
 L 7.44901,-1.88499 L 7.70001,-0.630997 z
" stroke="black" fill="lightgray" stroke-width="0.5"/>
</svg>
